<svg id="avatar" xmlns="http://www.w3.org/2000/svg" width="85.79" height="85.79" viewBox="0 0 85.79 85.79">
  <path id="Trazado_20" data-name="Trazado 20" d="M47.5,90.395A42.895,42.895,0,1,0,4.605,47.5,42.944,42.944,0,0,0,47.5,90.395ZM23.5,77.313c1.227-5.755,11.18-15.4,23.994-15.4s22.769,9.645,23.994,15.4a38.185,38.185,0,0,1-47.988,0ZM47.5,9.207a38.263,38.263,0,0,1,27.74,64.651c-2.416-5.874-9.057-11.822-17.33-14.723a20.961,20.961,0,1,0-20.819,0c-8.273,2.9-14.915,8.849-17.33,14.723A38.264,38.264,0,0,1,47.5,9.207Zm0,48.105a16.359,16.359,0,1,1,16.36-16.358A16.376,16.376,0,0,1,47.5,57.312Z" transform="translate(-4.605 -4.605)" fill="#efeeea"/>
</svg>
