<svg id="balanza" xmlns="http://www.w3.org/2000/svg" width="60" height="60" viewBox="0 0 60 60">
  <g id="envolvente">
    <rect id="Rectángulo_5" data-name="Rectángulo 5" width="60" height="60" fill="none"/>
  </g>
  <g id="noun_Scale_429983" transform="translate(8 8)">
    <path id="Trazado_7" data-name="Trazado 7" d="M48.934,31.568h0L44.111,20.314v-.648h.815a.815.815,0,1,0,0-1.63h-.815v-.815a.815.815,0,0,0-1.63,0v.815h-.815c-8.9,0-13.2-2.54-13.779-3.8.958-.956,3.186-3.374,3.186-5.16a4.074,4.074,0,1,0-8.148,0c0,1.786,2.228,4.2,3.186,5.16-.575,1.263-4.878,3.8-13.779,3.8h-.815v-.815a.815.815,0,0,0-1.63,0v.815H9.074a.815.815,0,1,0,0,1.63h.815v.648L5.066,31.568h0A.814.814,0,0,0,5,31.889a5.7,5.7,0,1,0,11.407,0,.814.814,0,0,0-.066-.321h0L11.519,20.314v-.648h.815c6.61,0,11.475-1.415,13.852-3.195V39.759c-.847,1.078-5.088,6.276-9.22,7.654A.814.814,0,0,0,17.222,49H36.778a.814.814,0,0,0,.257-1.587c-4.127-1.376-8.373-6.577-9.22-7.655V16.472c2.377,1.78,7.242,3.195,13.852,3.195h.815v.648L37.659,31.569h0a.807.807,0,0,0-.066.32,5.7,5.7,0,1,0,11.407,0A.814.814,0,0,0,48.934,31.568ZM7.05,31.074,10.7,22.549l3.654,8.525ZM43.3,22.549l3.653,8.525H39.643Z" transform="translate(-5 -5)" fill="#d3ae3c"/>
  </g>
</svg>
