<svg id="esposas" xmlns="http://www.w3.org/2000/svg" width="60" height="60" viewBox="0 0 60 60">
  <g id="noun_Handcuffs_429980" transform="translate(3 154)">
    <g id="Grupo_9" data-name="Grupo 9" transform="translate(5 -146)">
      <path id="Trazado_10" data-name="Trazado 10" d="M48.57,18.014a8.9,8.9,0,0,0-12.85-6.483L32.958,9.543a.809.809,0,0,0-1.129.184L30.411,11.7,29.032,10.7A4.045,4.045,0,0,0,22.06,6.682a4.083,4.083,0,0,0-.436.79,3.791,3.791,0,0,0-.443-.045,4.049,4.049,0,0,0-3.72,2.46c-.109-.009-.214-.033-.325-.033a4.023,4.023,0,0,0-3.967,4.81,3.985,3.985,0,0,0-1.618,4.045,4.035,4.035,0,0,0,1.54,7.243v1.7H10.663a.809.809,0,0,0-.809.809v3.4a8.9,8.9,0,1,0,8.09,0v-3.4a.809.809,0,0,0-.809-.809H14.708v-1.7a4.019,4.019,0,0,0,3.158-4.729,3.985,3.985,0,0,0,1.618-4.045,4.068,4.068,0,0,0,1.37-1.694c.109.008.214.032.325.032A4.051,4.051,0,0,0,24.9,13.056a3.968,3.968,0,0,0,.439.034h0a4.058,4.058,0,0,0,2.741-1.077l1.385,1-1.418,1.97a.809.809,0,0,0,.184,1.129l2.76,1.989a8.9,8.9,0,0,0,8.787,10.247h0a8.9,8.9,0,0,0,8.79-10.33ZM13.9,43.832a4.045,4.045,0,1,1,4.045-4.045A4.05,4.05,0,0,1,13.9,43.832Zm2.427-21.843a2.427,2.427,0,1,1-4.12-1.734,4.04,4.04,0,0,0,3.311,1.734,4.081,4.081,0,0,0,.8-.081C16.319,21.936,16.326,21.962,16.326,21.989Zm-2.591-2.41c.055,0,.108-.017.164-.017a2.415,2.415,0,0,1,1.782.792c-.055,0-.108.017-.164.017A2.415,2.415,0,0,1,13.735,19.579Zm4.209-1.635a2.417,2.417,0,0,1-.734,1.734A4.04,4.04,0,0,0,13.9,17.944a4.081,4.081,0,0,0-.8.081c0-.028-.008-.053-.008-.081a2.417,2.417,0,0,1,.734-1.734,4.04,4.04,0,0,0,3.311,1.734,4.081,4.081,0,0,0,.8-.081C17.937,17.891,17.944,17.917,17.944,17.944Zm-2.591-2.41c.055,0,.108-.017.164-.017a2.415,2.415,0,0,1,1.782.792c-.055,0-.108.017-.164.017A2.415,2.415,0,0,1,15.353,15.534Zm3.475.1a4.025,4.025,0,0,0-4.112-1.653c0-.028-.008-.053-.008-.081a2.43,2.43,0,0,1,2.427-2.427,4.032,4.032,0,0,0,2.141,3.547A2.438,2.438,0,0,1,18.828,15.633Zm.057-3.408a2.412,2.412,0,0,1,.545.921A2.412,2.412,0,0,1,18.885,12.225Zm2.3,1.674a4.032,4.032,0,0,0-2.141-3.547A2.42,2.42,0,0,1,21.18,9.045c.044,0,.086.011.129.013a3.895,3.895,0,0,0,1.67,3.27,4.01,4.01,0,0,0,.364.222A2.421,2.421,0,0,1,21.18,13.9Zm1.973-3.829a2.418,2.418,0,0,1,.217.374A2.525,2.525,0,0,1,23.153,10.07Zm2.188,1.4h0c-.04,0-.078-.007-.116-.009a4.03,4.03,0,0,0-2.052-3.49,2.486,2.486,0,0,1,.2-.346,2.427,2.427,0,1,1,1.968,3.845ZM43.069,21.809a4.058,4.058,0,0,1-3.286,1.682A4.045,4.045,0,0,1,36.5,17.083,4.059,4.059,0,0,1,39.791,15.4a4.044,4.044,0,0,1,3.279,6.408Z" transform="translate(-5 -5)" fill="#d3ae3c"/>
    </g>
  </g>
  <g id="envolvente">
    <rect id="Rectángulo_5" data-name="Rectángulo 5" width="60" height="60" fill="none"/>
  </g>
</svg>
