<svg id="ico-number-03" xmlns="http://www.w3.org/2000/svg" width="47.486" height="144.932" viewBox="0 0 47.486 144.932">
  <line id="Línea_7" data-name="Línea 7" y2="77" transform="translate(24.839)" fill="none" stroke="#d3ae3c" stroke-width="2"/>
  <g id="ico-number" transform="translate(-11.596 83.069)">
    <path id="Trazado_3" data-name="Trazado 3" d="M58.45,5H16.976a5.386,5.386,0,0,0-5.38,5.38V57.327a4.541,4.541,0,0,0,4.536,4.535H58.45a.632.632,0,0,0,.632-.632V5.632A.632.632,0,0,0,58.45,5ZM12.86,10.38a4.121,4.121,0,0,1,4.116-4.116H57.819V51.1H16.131a4.52,4.52,0,0,0-3.272,1.4V10.38ZM23.119,52.367H31.1v4.612l-3.7-1.952a.632.632,0,0,0-.59,0l-3.7,1.952Zm34.7,8.232H16.131a3.276,3.276,0,0,1-3.272-3.272V55.638a3.276,3.276,0,0,1,3.272-3.272h5.724v5.659a.632.632,0,0,0,.927.559L27.111,56.3l4.329,2.284a.633.633,0,0,0,.927-.559V52.365H57.819Z" transform="translate(0)" fill="#d3ae3c"/>
  </g>
  <text id="_03" data-name="03" transform="translate(23.339 121.5)" fill="#1d1c21" font-size="20" font-family="RobotoSlab-Regular, Roboto Slab"><tspan x="-11.104" y="0">03</tspan></text>
</svg>
