<svg xmlns="http://www.w3.org/2000/svg" width="190.32" height="82.1" viewBox="0 0 190.32 82.1">
  <g id="logo" transform="translate(-141 -51)">
    <g id="Grupo_3" data-name="Grupo 3">
      <path id="Trazado_23" data-name="Trazado 23" d="M11.436-11.436H7.441V0H4.277V-11.436H.3V-14H11.436ZM25.439,0H22.275V-5.7h-5.8V0H13.32V-14h3.154v5.586h5.8V-14h3.164Zm11.6,0h-8.4V-14h8.076v2.568H31.8V-8.32h4.58v2.559H31.8v3.2h5.244Zm13.6-5.557a6.359,6.359,0,0,1-1.3,4.307A4.74,4.74,0,0,1,45.566.244a5.372,5.372,0,0,1-2.041-.381V-3.1a2.93,2.93,0,0,0,1.816.615q2.158,0,2.158-3.2V-14h3.145Zm14.482-.508q0,6.309-5.879,6.309-5.7,0-5.7-6.162V-14h3.164v8.125q0,3.4,2.656,3.4,2.607,0,2.607-3.281V-14h3.154Zm2.4,5.527V-3.662a6,6,0,0,0,1.846,1.069,5.933,5.933,0,0,0,2.012.356,4.461,4.461,0,0,0,1.04-.107,2.436,2.436,0,0,0,.742-.3,1.3,1.3,0,0,0,.444-.449,1.121,1.121,0,0,0,.146-.562,1.214,1.214,0,0,0-.234-.732,2.522,2.522,0,0,0-.64-.6,6.683,6.683,0,0,0-.962-.527q-.557-.254-1.2-.518A6.131,6.131,0,0,1,68.276-7.7a3.646,3.646,0,0,1-.806-2.383,3.8,3.8,0,0,1,.439-1.88,3.732,3.732,0,0,1,1.2-1.294A5.364,5.364,0,0,1,70.859-14a9.007,9.007,0,0,1,2.109-.239,12.687,12.687,0,0,1,1.938.132,7.623,7.623,0,0,1,1.558.405v2.92a4.71,4.71,0,0,0-.767-.43,6.074,6.074,0,0,0-.854-.308,6.518,6.518,0,0,0-.874-.181,6.186,6.186,0,0,0-.825-.059,4.3,4.3,0,0,0-.977.1,2.5,2.5,0,0,0-.742.288,1.433,1.433,0,0,0-.469.444,1.053,1.053,0,0,0-.166.581,1.11,1.11,0,0,0,.186.63,2.128,2.128,0,0,0,.527.527,5.6,5.6,0,0,0,.83.488q.488.239,1.1.493a12.3,12.3,0,0,1,1.509.747,5.364,5.364,0,0,1,1.147.894,3.481,3.481,0,0,1,.732,1.138,4.02,4.02,0,0,1,.254,1.489,3.989,3.989,0,0,1-.444,1.968A3.607,3.607,0,0,1,75.43-.679a5.23,5.23,0,0,1-1.772.708,10.244,10.244,0,0,1-2.134.215,11.865,11.865,0,0,1-2.192-.2A6.618,6.618,0,0,1,67.529-.537Zm21.689-10.9H85.225V0H82.061V-11.436H78.086V-14H89.219ZM94.258,0H91.1V-14h3.154ZM107.48-.5a9.235,9.235,0,0,1-4,.742A6.749,6.749,0,0,1,98.408-1.65,6.925,6.925,0,0,1,96.563-6.7a7.4,7.4,0,0,1,2.075-5.449,7.259,7.259,0,0,1,5.386-2.09,10.072,10.072,0,0,1,3.457.518v3.037a6.126,6.126,0,0,0-3.2-.84,4.249,4.249,0,0,0-3.184,1.24,4.6,4.6,0,0,0-1.211,3.359,4.514,4.514,0,0,0,1.143,3.237A4.036,4.036,0,0,0,104.1-2.48a6.561,6.561,0,0,0,3.379-.9Zm10.84.5h-8.4V-14H118v2.568h-4.922V-8.32h4.58v2.559h-4.58v3.2h5.244Z" transform="translate(213 100)" fill="#fff"/>
      <path id="Trazado_1" data-name="Trazado 1" d="M69.2,9H30.8A12.942,12.942,0,0,1,20,19.9V57.4c0,15.9,12.6,30,30,33.7,17.4-3.6,30-17.7,30-33.7V19.9A12.942,12.942,0,0,1,69.2,9ZM74,55.6A30.149,30.149,0,0,1,50.4,84.9h-.8A30.148,30.148,0,0,1,26,55.6V25.5a2.234,2.234,0,0,1,1-1.8A19.66,19.66,0,0,0,34.7,16a1.812,1.812,0,0,1,1.8-1h27a2.234,2.234,0,0,1,1.8,1A19.66,19.66,0,0,0,73,23.7a2.1,2.1,0,0,1,1,1.8ZM50,55a2.006,2.006,0,0,0-2-2H43.9l4.7-20h2.8l6.4,27.4L50,68.2l-7.8-7.8L43,57h5A2.006,2.006,0,0,0,50,55ZM70,26.6v29A26.193,26.193,0,0,1,50,80.9,26.28,26.28,0,0,1,30,55.6v-29A23.008,23.008,0,0,0,37.6,19h2.1l5.2,12.2L38,60.6a2.157,2.157,0,0,0,.5,1.9l10,10A2.976,2.976,0,0,0,50,73a1.974,1.974,0,0,0,1.4-.6l10-10a1.9,1.9,0,0,0,.5-1.9L55,31.1,60.3,19h2.1A23.009,23.009,0,0,0,70,26.6ZM48.3,29,44,19H56L51.7,29Z" transform="translate(121 42)" fill="#d3ae3c"/>
    </g>
  </g>
</svg>
