<svg id="mazo" xmlns="http://www.w3.org/2000/svg" width="60" height="60" viewBox="0 0 60 60">
  <g id="envolvente">
    <rect id="Rectángulo_5" data-name="Rectángulo 5" width="60" height="60" fill="none"/>
  </g>
  <g id="noun_Gavel_429985" transform="translate(-2 -2)">
    <g id="Grupo_10" data-name="Grupo 10">
      <path id="Trazado_11" data-name="Trazado 11" d="M56.976,40.23a1,1,0,0,0-1.4.209l-.6.8L30.875,23.386l3.572-4.822.8.6a1,1,0,0,0,1.4-.209l2.381-3.214a1,1,0,0,0-.209-1.4L29.179,7.2a1,1,0,0,0-1.4.208L25.4,10.618a1,1,0,0,0,.208,1.4l.8.6L15.7,27.077l-.8-.595a1,1,0,0,0-1.4.208L11.114,29.9a1,1,0,0,0,.208,1.4l9.643,7.143a1,1,0,0,0,.595.2,1.039,1.039,0,0,0,.147-.011,1,1,0,0,0,.656-.4l2.38-3.215a1,1,0,0,0-.208-1.4l-.8-.6L27.3,28.207,51.41,46.063l-.6.8a1,1,0,0,0,.208,1.4A4.954,4.954,0,0,0,54,49.246a5,5,0,0,0,2.981-9.016Z" fill="#d3ae3c"/>
      <path id="Trazado_12" data-name="Trazado 12" d="M22,49H20.414l-1.707-1.707A1,1,0,0,0,18,47H10a1,1,0,0,0-.707.293L7.586,49H6a1,1,0,0,0-1,1v6a1,1,0,0,0,1,1H22a1,1,0,0,0,1-1V50A1,1,0,0,0,22,49Z" fill="#d3ae3c"/>
    </g>
  </g>
</svg>
