<svg id="monumento" xmlns="http://www.w3.org/2000/svg" width="60" height="60" viewBox="0 0 60 60">
  <g id="envolvente">
    <rect id="Rectángulo_5" data-name="Rectángulo 5" width="60" height="60" fill="none"/>
  </g>
  <g id="noun_court_429979" transform="translate(5 3)">
    <g id="Grupo_12" data-name="Grupo 12">
      <circle id="Elipse_2" data-name="Elipse 2" cx="1" cy="1" r="1" transform="translate(24 10)" fill="#d3ae3c"/>
      <path id="Trazado_13" data-name="Trazado 13" d="M10,25H54a1,1,0,0,0,.632-1.774l-22-18a1,1,0,0,0-1.267,0l-22,18A1,1,0,0,0,10,25ZM32,13a3,3,0,1,1-3,3A3,3,0,0,1,32,13Z" transform="translate(-7 -4.999)" fill="#d3ae3c"/>
      <path id="Trazado_14" data-name="Trazado 14" d="M24,29a1,1,0,0,0,0-2H16a1,1,0,0,0,0,2h1V47H16a1,1,0,0,0,0,2h8a1,1,0,0,0,0-2H23V29Z" transform="translate(-7 -4.999)" fill="#d3ae3c"/>
      <path id="Trazado_15" data-name="Trazado 15" d="M36,29a1,1,0,0,0,0-2H28a1,1,0,0,0,0,2h1V47H28a1,1,0,0,0,0,2h8a1,1,0,0,0,0-2H35V29Z" transform="translate(-7 -4.999)" fill="#d3ae3c"/>
      <path id="Trazado_16" data-name="Trazado 16" d="M48,29a1,1,0,0,0,0-2H40a1,1,0,0,0,0,2h1V47H40a1,1,0,0,0,0,2h8a1,1,0,0,0,0-2H47V29Z" transform="translate(-7 -4.999)" fill="#d3ae3c"/>
      <path id="Trazado_17" data-name="Trazado 17" d="M56,53H53V52a1,1,0,0,0-1-1H12a1,1,0,0,0-1,1v1H8a1,1,0,0,0-1,1v4a1,1,0,0,0,1,1H56a1,1,0,0,0,1-1V54A1,1,0,0,0,56,53Z" transform="translate(-7 -4.999)" fill="#d3ae3c"/>
    </g>
  </g>
</svg>
