<svg id="person" xmlns="http://www.w3.org/2000/svg" width="60" height="60" viewBox="0 0 60 60">
  <g id="envolvente">
    <rect id="Rectángulo_5" data-name="Rectángulo 5" width="60" height="60" fill="none"/>
  </g>
  <g id="noun_personal_104648" transform="translate(8 5)">
    <path id="Trazado_18" data-name="Trazado 18" d="M56.362,51.362,43.723,46.649A3.723,3.723,0,0,1,41.234,42.8c3.255-2.4,7.277-6.637,7.277-11.542V25.488s-.957-3.174-1.915-3.847a28.708,28.708,0,0,1-3.83-3.847c-1.245-1.443-1.723-1.635-1.915-2.886s-2.585-3.174-2.872-1.924-2.681,1.731-4.787,2.886-3.16,1.25-3.83,2.886-2.872,5.963-2.872,9.618v2.886c0,4.905,4.021,9.138,7.181,11.446a3.727,3.727,0,0,1-2.681,3.751l-.67.192L18.447,52.227A6.861,6.861,0,0,0,15,56.267V63H60V56.267C59.426,54.536,58.085,52.035,56.362,51.362Z" transform="translate(-15 -12.578)" fill="#d3ae3c"/>
  </g>
</svg>
